<mxfile host="app.diagrams.net" modified="2024-06-02T16:29:43.186Z" agent="Mozilla/5.0 (Windows NT 10.0; Win64; x64) AppleWebKit/537.36 (KHTML, like Gecko) Chrome/125.0.0.0 Safari/537.36" etag="WGzGJbmuF5AUCJ1caxoe" version="24.4.13" type="github">
  <diagram id="C5RBs43oDa-KdzZeNtuy" name="Page-1">
    <mxGraphModel dx="880" dy="468" grid="1" gridSize="10" guides="1" tooltips="1" connect="1" arrows="1" fold="1" page="1" pageScale="1" pageWidth="827" pageHeight="1169" math="0" shadow="0">
      <root>
        <mxCell id="WIyWlLk6GJQsqaUBKTNV-0" />
        <mxCell id="WIyWlLk6GJQsqaUBKTNV-1" parent="WIyWlLk6GJQsqaUBKTNV-0" />
        <mxCell id="gIt53jLXBDmYOnBQOCOE-3" style="edgeStyle=orthogonalEdgeStyle;rounded=0;orthogonalLoop=1;jettySize=auto;html=1;exitX=1;exitY=0.5;exitDx=0;exitDy=0;exitPerimeter=0;entryX=0.25;entryY=0;entryDx=0;entryDy=0;" edge="1" parent="WIyWlLk6GJQsqaUBKTNV-1" source="gIt53jLXBDmYOnBQOCOE-2" target="gIt53jLXBDmYOnBQOCOE-9">
          <mxGeometry relative="1" as="geometry">
            <mxPoint x="280" y="170" as="targetPoint" />
          </mxGeometry>
        </mxCell>
        <mxCell id="gIt53jLXBDmYOnBQOCOE-4" style="edgeStyle=orthogonalEdgeStyle;rounded=0;orthogonalLoop=1;jettySize=auto;html=1;exitX=0.5;exitY=1;exitDx=0;exitDy=0;exitPerimeter=0;entryX=0;entryY=0.75;entryDx=0;entryDy=0;" edge="1" parent="WIyWlLk6GJQsqaUBKTNV-1" source="gIt53jLXBDmYOnBQOCOE-2" target="gIt53jLXBDmYOnBQOCOE-9">
          <mxGeometry relative="1" as="geometry">
            <mxPoint x="100" y="330" as="targetPoint" />
          </mxGeometry>
        </mxCell>
        <mxCell id="gIt53jLXBDmYOnBQOCOE-2" value="Meio de Transporte" style="strokeWidth=2;html=1;shape=mxgraph.flowchart.decision;whiteSpace=wrap;" vertex="1" parent="WIyWlLk6GJQsqaUBKTNV-1">
          <mxGeometry x="50" y="130" width="100" height="80" as="geometry" />
        </mxCell>
        <mxCell id="gIt53jLXBDmYOnBQOCOE-5" value="ônibus" style="text;html=1;align=center;verticalAlign=middle;resizable=0;points=[];autosize=1;strokeColor=none;fillColor=none;" vertex="1" parent="WIyWlLk6GJQsqaUBKTNV-1">
          <mxGeometry x="170" y="148" width="60" height="30" as="geometry" />
        </mxCell>
        <mxCell id="gIt53jLXBDmYOnBQOCOE-6" value="trem" style="text;html=1;align=center;verticalAlign=middle;resizable=0;points=[];autosize=1;strokeColor=none;fillColor=none;" vertex="1" parent="WIyWlLk6GJQsqaUBKTNV-1">
          <mxGeometry x="60" y="248" width="50" height="30" as="geometry" />
        </mxCell>
        <mxCell id="gIt53jLXBDmYOnBQOCOE-7" value="" style="verticalLabelPosition=bottom;verticalAlign=top;html=1;shape=mxgraph.flowchart.on-page_reference;fillColor=#0a0a0a;" vertex="1" parent="WIyWlLk6GJQsqaUBKTNV-1">
          <mxGeometry x="85" y="50" width="30" height="30" as="geometry" />
        </mxCell>
        <mxCell id="gIt53jLXBDmYOnBQOCOE-8" style="edgeStyle=orthogonalEdgeStyle;rounded=0;orthogonalLoop=1;jettySize=auto;html=1;exitX=0.5;exitY=1;exitDx=0;exitDy=0;exitPerimeter=0;entryX=0.5;entryY=0;entryDx=0;entryDy=0;entryPerimeter=0;" edge="1" parent="WIyWlLk6GJQsqaUBKTNV-1" source="gIt53jLXBDmYOnBQOCOE-7" target="gIt53jLXBDmYOnBQOCOE-2">
          <mxGeometry relative="1" as="geometry" />
        </mxCell>
        <mxCell id="gIt53jLXBDmYOnBQOCOE-11" style="edgeStyle=orthogonalEdgeStyle;rounded=0;orthogonalLoop=1;jettySize=auto;html=1;exitX=1;exitY=0.5;exitDx=0;exitDy=0;entryX=0;entryY=0.5;entryDx=0;entryDy=0;" edge="1" parent="WIyWlLk6GJQsqaUBKTNV-1" source="gIt53jLXBDmYOnBQOCOE-9" target="gIt53jLXBDmYOnBQOCOE-10">
          <mxGeometry relative="1" as="geometry" />
        </mxCell>
        <mxCell id="gIt53jLXBDmYOnBQOCOE-9" value="Escolher horário" style="rounded=0;whiteSpace=wrap;html=1;" vertex="1" parent="WIyWlLk6GJQsqaUBKTNV-1">
          <mxGeometry x="180" y="240" width="120" height="60" as="geometry" />
        </mxCell>
        <mxCell id="gIt53jLXBDmYOnBQOCOE-10" value="Disponibilidade de assentos" style="rounded=0;whiteSpace=wrap;html=1;" vertex="1" parent="WIyWlLk6GJQsqaUBKTNV-1">
          <mxGeometry x="330" y="240" width="120" height="60" as="geometry" />
        </mxCell>
        <mxCell id="gIt53jLXBDmYOnBQOCOE-15" style="edgeStyle=orthogonalEdgeStyle;rounded=0;orthogonalLoop=1;jettySize=auto;html=1;exitX=1;exitY=0.5;exitDx=0;exitDy=0;exitPerimeter=0;entryX=0.75;entryY=0;entryDx=0;entryDy=0;" edge="1" parent="WIyWlLk6GJQsqaUBKTNV-1" source="gIt53jLXBDmYOnBQOCOE-13" target="gIt53jLXBDmYOnBQOCOE-9">
          <mxGeometry relative="1" as="geometry">
            <mxPoint x="270" y="230" as="targetPoint" />
            <Array as="points">
              <mxPoint x="610" y="270" />
              <mxPoint x="610" y="160" />
              <mxPoint x="270" y="160" />
            </Array>
          </mxGeometry>
        </mxCell>
        <mxCell id="gIt53jLXBDmYOnBQOCOE-16" style="edgeStyle=orthogonalEdgeStyle;rounded=0;orthogonalLoop=1;jettySize=auto;html=1;exitX=0.5;exitY=1;exitDx=0;exitDy=0;exitPerimeter=0;entryX=1;entryY=0.5;entryDx=0;entryDy=0;" edge="1" parent="WIyWlLk6GJQsqaUBKTNV-1" source="gIt53jLXBDmYOnBQOCOE-13" target="gIt53jLXBDmYOnBQOCOE-19">
          <mxGeometry relative="1" as="geometry">
            <mxPoint x="540" y="400" as="targetPoint" />
          </mxGeometry>
        </mxCell>
        <mxCell id="gIt53jLXBDmYOnBQOCOE-18" value="Sim" style="edgeLabel;html=1;align=center;verticalAlign=middle;resizable=0;points=[];" vertex="1" connectable="0" parent="gIt53jLXBDmYOnBQOCOE-16">
          <mxGeometry x="-0.0719" y="-3" relative="1" as="geometry">
            <mxPoint as="offset" />
          </mxGeometry>
        </mxCell>
        <mxCell id="gIt53jLXBDmYOnBQOCOE-13" value="Assentos disponiveis?" style="strokeWidth=2;html=1;shape=mxgraph.flowchart.decision;whiteSpace=wrap;" vertex="1" parent="WIyWlLk6GJQsqaUBKTNV-1">
          <mxGeometry x="490" y="230" width="100" height="80" as="geometry" />
        </mxCell>
        <mxCell id="gIt53jLXBDmYOnBQOCOE-14" style="edgeStyle=orthogonalEdgeStyle;rounded=0;orthogonalLoop=1;jettySize=auto;html=1;exitX=1;exitY=0.25;exitDx=0;exitDy=0;entryX=0;entryY=0.5;entryDx=0;entryDy=0;entryPerimeter=0;" edge="1" parent="WIyWlLk6GJQsqaUBKTNV-1" source="gIt53jLXBDmYOnBQOCOE-10" target="gIt53jLXBDmYOnBQOCOE-13">
          <mxGeometry relative="1" as="geometry" />
        </mxCell>
        <mxCell id="gIt53jLXBDmYOnBQOCOE-17" value="Não" style="text;html=1;align=center;verticalAlign=middle;resizable=0;points=[];autosize=1;strokeColor=none;fillColor=none;" vertex="1" parent="WIyWlLk6GJQsqaUBKTNV-1">
          <mxGeometry x="590" y="200" width="50" height="30" as="geometry" />
        </mxCell>
        <mxCell id="gIt53jLXBDmYOnBQOCOE-22" style="edgeStyle=orthogonalEdgeStyle;rounded=0;orthogonalLoop=1;jettySize=auto;html=1;exitX=0;exitY=0.5;exitDx=0;exitDy=0;entryX=1;entryY=0.5;entryDx=0;entryDy=0;" edge="1" parent="WIyWlLk6GJQsqaUBKTNV-1" source="gIt53jLXBDmYOnBQOCOE-19" target="gIt53jLXBDmYOnBQOCOE-20">
          <mxGeometry relative="1" as="geometry" />
        </mxCell>
        <mxCell id="gIt53jLXBDmYOnBQOCOE-19" value="Escolher assento" style="rounded=0;whiteSpace=wrap;html=1;" vertex="1" parent="WIyWlLk6GJQsqaUBKTNV-1">
          <mxGeometry x="330" y="340" width="120" height="60" as="geometry" />
        </mxCell>
        <mxCell id="gIt53jLXBDmYOnBQOCOE-20" value="Efetuar pagamento" style="rounded=0;whiteSpace=wrap;html=1;" vertex="1" parent="WIyWlLk6GJQsqaUBKTNV-1">
          <mxGeometry x="180" y="340" width="120" height="60" as="geometry" />
        </mxCell>
        <mxCell id="gIt53jLXBDmYOnBQOCOE-25" style="edgeStyle=orthogonalEdgeStyle;rounded=0;orthogonalLoop=1;jettySize=auto;html=1;exitX=0.5;exitY=1;exitDx=0;exitDy=0;exitPerimeter=0;entryX=0.75;entryY=1;entryDx=0;entryDy=0;" edge="1" parent="WIyWlLk6GJQsqaUBKTNV-1" source="gIt53jLXBDmYOnBQOCOE-23" target="gIt53jLXBDmYOnBQOCOE-20">
          <mxGeometry relative="1" as="geometry" />
        </mxCell>
        <mxCell id="gIt53jLXBDmYOnBQOCOE-30" style="edgeStyle=orthogonalEdgeStyle;rounded=0;orthogonalLoop=1;jettySize=auto;html=1;exitX=0;exitY=0.5;exitDx=0;exitDy=0;exitPerimeter=0;entryX=0;entryY=0.5;entryDx=0;entryDy=0;" edge="1" parent="WIyWlLk6GJQsqaUBKTNV-1" source="gIt53jLXBDmYOnBQOCOE-23" target="gIt53jLXBDmYOnBQOCOE-29">
          <mxGeometry relative="1" as="geometry" />
        </mxCell>
        <mxCell id="gIt53jLXBDmYOnBQOCOE-23" value="Verificar pagamento" style="strokeWidth=2;html=1;shape=mxgraph.flowchart.decision;whiteSpace=wrap;" vertex="1" parent="WIyWlLk6GJQsqaUBKTNV-1">
          <mxGeometry x="40" y="340" width="100" height="80" as="geometry" />
        </mxCell>
        <mxCell id="gIt53jLXBDmYOnBQOCOE-24" style="edgeStyle=orthogonalEdgeStyle;rounded=0;orthogonalLoop=1;jettySize=auto;html=1;exitX=0;exitY=0;exitDx=0;exitDy=0;entryX=0.5;entryY=0;entryDx=0;entryDy=0;entryPerimeter=0;" edge="1" parent="WIyWlLk6GJQsqaUBKTNV-1" source="gIt53jLXBDmYOnBQOCOE-20" target="gIt53jLXBDmYOnBQOCOE-23">
          <mxGeometry relative="1" as="geometry" />
        </mxCell>
        <mxCell id="gIt53jLXBDmYOnBQOCOE-26" value="Rejeitado" style="text;html=1;align=center;verticalAlign=middle;resizable=0;points=[];autosize=1;strokeColor=none;fillColor=none;" vertex="1" parent="WIyWlLk6GJQsqaUBKTNV-1">
          <mxGeometry x="160" y="420" width="70" height="30" as="geometry" />
        </mxCell>
        <mxCell id="gIt53jLXBDmYOnBQOCOE-33" style="edgeStyle=orthogonalEdgeStyle;rounded=0;orthogonalLoop=1;jettySize=auto;html=1;exitX=1;exitY=0.5;exitDx=0;exitDy=0;entryX=0;entryY=0.5;entryDx=0;entryDy=0;" edge="1" parent="WIyWlLk6GJQsqaUBKTNV-1" source="gIt53jLXBDmYOnBQOCOE-29" target="gIt53jLXBDmYOnBQOCOE-32">
          <mxGeometry relative="1" as="geometry" />
        </mxCell>
        <mxCell id="gIt53jLXBDmYOnBQOCOE-29" value="Confirmar pagamento" style="rounded=0;whiteSpace=wrap;html=1;" vertex="1" parent="WIyWlLk6GJQsqaUBKTNV-1">
          <mxGeometry x="180" y="460" width="120" height="60" as="geometry" />
        </mxCell>
        <mxCell id="gIt53jLXBDmYOnBQOCOE-31" value="Aprovado" style="text;html=1;align=center;verticalAlign=middle;resizable=0;points=[];autosize=1;strokeColor=none;fillColor=none;" vertex="1" parent="WIyWlLk6GJQsqaUBKTNV-1">
          <mxGeometry x="30" y="468" width="70" height="30" as="geometry" />
        </mxCell>
        <mxCell id="gIt53jLXBDmYOnBQOCOE-32" value="Notificar usuário" style="rounded=0;whiteSpace=wrap;html=1;" vertex="1" parent="WIyWlLk6GJQsqaUBKTNV-1">
          <mxGeometry x="340" y="460" width="120" height="60" as="geometry" />
        </mxCell>
        <mxCell id="gIt53jLXBDmYOnBQOCOE-34" value="" style="verticalLabelPosition=bottom;verticalAlign=top;html=1;shape=mxgraph.flowchart.on-page_reference;fillColor=#FAFAFA;gradientColor=none;strokeColor=#0A0A0A;" vertex="1" parent="WIyWlLk6GJQsqaUBKTNV-1">
          <mxGeometry x="510" y="468" width="35" height="35" as="geometry" />
        </mxCell>
        <mxCell id="gIt53jLXBDmYOnBQOCOE-35" value="" style="verticalLabelPosition=bottom;verticalAlign=top;html=1;shape=mxgraph.flowchart.on-page_reference;fillColor=#080808;gradientColor=none;strokeColor=#F5F5F5;" vertex="1" parent="WIyWlLk6GJQsqaUBKTNV-1">
          <mxGeometry x="513.75" y="471.5" width="27.5" height="28" as="geometry" />
        </mxCell>
        <mxCell id="gIt53jLXBDmYOnBQOCOE-36" style="edgeStyle=orthogonalEdgeStyle;rounded=0;orthogonalLoop=1;jettySize=auto;html=1;exitX=1;exitY=0.5;exitDx=0;exitDy=0;entryX=0;entryY=0.5;entryDx=0;entryDy=0;entryPerimeter=0;" edge="1" parent="WIyWlLk6GJQsqaUBKTNV-1" source="gIt53jLXBDmYOnBQOCOE-32" target="gIt53jLXBDmYOnBQOCOE-34">
          <mxGeometry relative="1" as="geometry" />
        </mxCell>
      </root>
    </mxGraphModel>
  </diagram>
</mxfile>
